<svg width="296" height="64" viewBox="0 0 296 64" fill="none" xmlns="http://www.w3.org/2000/svg">
<path d="M23.8694 51.9092C23.0563 51.9092 22.4756 51.851 21.6044 51.7348C21.0818 51.6766 20.8495 51.4441 20.8495 51.0954V49.5259C20.8495 49.1771 21.1398 48.9446 21.7206 48.9446H23.4048C24.9729 48.9446 25.3794 48.4214 25.3794 46.3869V21.624C25.3794 21.2171 25.6698 20.8102 26.1344 20.8102H28.2832C28.7478 20.8102 29.0382 21.1589 29.0382 21.624V46.3869C29.0963 50.6885 27.2378 51.9092 23.8694 51.9092Z" fill="white"/>
<path d="M34.1487 51.9092C33.3357 51.9092 32.7549 51.851 31.8838 51.7348C31.3611 51.6766 31.1288 51.4441 31.1288 51.0954V49.5259C31.1288 49.1771 31.4192 48.9446 31.9999 48.9446H33.6841C35.2522 48.9446 35.6587 48.4214 35.6587 46.3869V21.624C35.6587 21.2171 35.9491 20.8102 36.4137 20.8102H38.5625C39.0271 20.8102 39.3175 21.1589 39.3175 21.624V46.3869C39.3756 50.6885 37.5172 51.9092 34.1487 51.9092Z" fill="white"/>
<path d="M32 64C14.3448 64 0 49.6421 0 32.0291C0 14.416 14.3448 0 32 0C49.6552 0 64 14.3579 64 32.0291C64 49.7003 49.5971 64 32 64ZM32 3.604C16.3194 3.604 3.60073 16.3342 3.60073 32.0291C3.60073 47.7239 16.3194 60.4541 32 60.4541C47.6806 60.4541 60.3993 47.7239 60.3993 32.0291C60.3993 16.3342 47.6225 3.604 32 3.604Z" fill="white"/>
<path d="M27.2957 17.0899C28.6749 17.0899 29.7929 15.9708 29.7929 14.5904C29.7929 13.2099 28.6749 12.0908 27.2957 12.0908C25.9164 12.0908 24.7984 13.2099 24.7984 14.5904C24.7984 15.9708 25.9164 17.0899 27.2957 17.0899Z" fill="white"/>
<path d="M37.5754 17.0899C38.9546 17.0899 40.0727 15.9708 40.0727 14.5904C40.0727 13.2099 38.9546 12.0908 37.5754 12.0908C36.1962 12.0908 35.0781 13.2099 35.0781 14.5904C35.0781 15.9708 36.1962 17.0899 37.5754 17.0899Z" fill="white"/>
<path d="M99.2739 10.6957L92.9456 46.0963C91.7737 52.6648 87.6135 54.4668 82.6915 54.4668C81.5782 54.4668 80.875 54.4087 79.5859 54.2924C79.2344 54.2343 79 54.0018 79 53.5949C79 53.5368 79 53.4786 79 53.4205L79.8789 48.4795C79.9375 48.1308 80.2305 47.782 80.5821 47.782H83.043C84.1564 47.782 84.3907 47.2588 84.6251 46.0381L90.8948 10.6957C91.012 10.1725 91.4807 9.76564 92.0081 9.76564H98.3949C98.8637 9.76564 99.2153 10.1144 99.2153 10.5213C99.2739 10.6376 99.2739 10.6376 99.2739 10.6957Z" fill="white"/>
<path d="M125.056 30.227L124.411 33.5985C122.829 41.8528 118.61 46.2125 109.938 46.2125C103.317 46.2125 99.6842 42.0272 99.6842 36.3306C99.6842 35.4587 99.7428 34.5286 99.9186 33.5985L100.563 30.227C102.204 21.4496 106.891 17.6131 115.036 17.6131C121.657 17.6131 125.349 21.5077 125.349 27.3787C125.349 28.3669 125.173 29.6458 125.056 30.227ZM113.864 24.2979C111.052 24.2979 109.235 25.9255 108.415 30.227L107.77 33.5985C107.595 34.4705 107.536 35.2261 107.536 35.9237C107.536 38.4232 108.708 39.5858 111.169 39.5858C114.333 39.5858 115.798 37.5513 116.56 33.5985L117.204 30.227C117.38 29.4132 117.438 28.5994 117.438 28.0181C117.438 25.4605 116.267 24.2979 113.864 24.2979Z" fill="white"/>
<path d="M154.294 20.2289L149.724 45.9219C148.493 52.8973 144.216 55.6294 136.13 55.6294C131.911 55.6294 128.688 54.8737 127.048 54.2924C126.52 54.118 126.286 53.8274 126.286 53.4205C126.286 53.2461 126.345 53.188 126.345 53.0136L126.931 49.7584C127.048 49.2352 127.399 48.8864 127.985 48.8864C128.044 48.8864 128.044 48.8864 128.102 48.8864C130.27 49.0608 135.017 49.4677 137.36 49.4677C140.759 49.4677 141.521 48.7121 142.048 45.8637L142.165 45.3406C140.818 45.6312 139.47 45.8056 138.181 45.8056C132.263 45.8056 127.634 42.6666 127.634 36.1562C127.634 35.2843 127.692 34.3542 127.868 33.366L128.454 30.0527C130.095 21.0427 134.313 17.6712 142.927 17.6712C147.38 17.6712 151.247 18.4269 153.064 18.8919C154.06 19.1244 154.412 19.415 154.412 19.9382C154.353 19.9382 154.294 20.0545 154.294 20.2289ZM141.696 24.1235C138.239 24.1235 136.833 26.623 136.247 30.0527L135.661 33.366C135.485 34.2961 135.427 35.0517 135.427 35.7493C135.427 38.7139 137.009 39.4114 139.353 39.4114C140.466 39.4114 141.814 39.237 143.22 39.0626L145.798 24.4723C144.919 24.2979 143.572 24.1235 141.696 24.1235Z" fill="white"/>
<path d="M181.248 18.8338C182.362 19.1244 182.655 19.2988 182.537 20.287L178.26 44.8174C178.143 45.3406 177.908 45.8056 177.147 45.8056H172.166C171.639 45.8056 171.229 45.4568 171.346 44.8174L171.521 43.4223C168.885 45.4568 166.541 46.2125 163.963 46.2125C158.103 46.2125 155.759 41.7366 155.759 36.9119C155.759 35.9818 155.877 35.1099 155.994 34.1798C155.994 34.1798 156.638 30.5177 156.756 29.6458C158.22 21.2171 163.494 17.6131 171.17 17.6131C174.451 17.6131 178.084 18.02 181.248 18.8338ZM170.115 24.0654C166.658 24.0654 165.252 26.0999 164.549 30.0527L163.67 35.1099C163.553 35.633 163.494 36.1562 163.494 36.7375C163.494 38.3651 164.08 39.7021 166.307 39.7021C167.947 39.7021 169.881 38.9464 171.463 38.0163L173.865 24.4141C172.986 24.2398 171.463 24.0654 170.115 24.0654Z" fill="white"/>
<path d="M183.299 47.317L188.338 19.0081C188.455 18.485 188.748 17.9618 189.451 17.9618H195.487C196.248 17.9618 196.307 18.485 196.248 19.0081L191.209 47.317C190.037 53.8855 187.518 55.6294 182.01 55.6294C180.721 55.6294 179.49 55.5131 178.143 55.2806C177.498 55.1644 177.264 54.8156 177.381 54.2924L178.084 50.4559C178.201 49.9328 178.611 49.584 179.256 49.584H181.424C182.772 49.6421 183.006 49.0027 183.299 47.317ZM189.041 13.8928L189.803 9.35874C189.92 8.83558 190.272 8.37054 190.975 8.37054H197.303C197.831 8.37054 198.241 8.54493 198.124 9.35874L197.362 13.8928C197.245 14.416 196.952 14.881 196.131 14.881H189.803C189.217 14.881 188.924 14.416 189.041 13.8928Z" fill="white"/>
<path d="M224.55 19.0663L219.979 44.8174C219.862 45.3406 219.393 45.8056 218.866 45.8056H213.417C212.948 45.8056 212.596 45.4568 212.596 45.0499C212.596 44.9337 212.596 44.8755 212.596 44.8755L212.831 43.713C210.546 45.2243 208.436 46.2706 205.038 46.2706C200.174 46.2706 197.42 43.2479 197.42 38.1907C197.42 37.2606 197.538 36.2724 197.713 35.2261L200.526 19.0663C200.643 18.5431 201.229 18.02 201.756 18.02H207.674C208.143 18.02 208.436 18.4269 208.436 18.8338C208.436 18.8919 208.436 19.0081 208.436 19.0081L205.624 35.168C205.448 35.9818 205.389 36.7956 205.389 37.3769C205.389 39.0045 206.151 39.7021 208.436 39.7021C209.432 39.7021 211.835 38.9464 213.3 38.0744L216.698 19.0081C216.815 18.485 217.343 17.9618 217.87 17.9618H223.788C224.257 17.9618 224.608 18.3687 224.608 18.8338C224.55 18.95 224.55 19.0081 224.55 19.0663Z" fill="white"/>
<path d="M250.566 28.6576L247.754 44.8174C247.636 45.3406 247.05 45.8637 246.523 45.8637H240.605C240.136 45.8637 239.843 45.4568 239.843 45.0499C239.843 44.9918 239.843 44.8755 239.843 44.8755L242.656 28.7157C242.832 27.9019 242.89 27.1462 242.89 26.5649C242.89 24.7629 241.718 24.1816 240.253 24.1816C238.378 24.1816 236.035 25.1117 234.98 25.7511L231.64 44.7593C231.523 45.2824 230.995 45.8056 230.468 45.8056H224.55C224.081 45.8056 223.73 45.3987 223.73 44.9337C223.73 44.8755 223.73 44.8174 223.73 44.7593L228.3 19.0081C228.417 18.485 228.886 18.02 229.413 18.02H234.745C235.214 18.02 235.566 18.3687 235.566 18.8338C235.566 18.8919 235.566 18.95 235.566 19.0081L235.39 20.1707C237.617 18.5431 240.429 17.6712 243.007 17.6712C247.226 17.6712 250.859 19.9963 250.859 25.693C250.859 26.623 250.742 27.5531 250.566 28.6576Z" fill="white"/>
<path d="M270.547 19.0082L269.785 22.9609C269.668 23.4841 269.199 23.9491 268.672 23.9491H264.688L262.168 38.0745C262.051 38.6557 261.992 39.1208 261.992 39.4114C261.992 40.1671 262.344 40.3415 263.34 40.3415H265.742C266.211 40.3415 266.621 40.5159 266.621 41.039C266.621 41.0972 266.621 41.1553 266.621 41.2134L265.918 44.9918C265.801 45.4568 265.449 45.8637 264.863 45.98C263.34 46.2125 262.344 46.3869 260.879 46.3869C256.426 46.3869 253.965 44.7593 253.965 40.574C253.965 39.8183 254.082 39.0045 254.199 38.0745L256.719 24.0072L252.91 23.3678C252.441 23.2516 252.09 22.9609 252.09 22.4959C252.09 22.4378 252.09 22.3796 252.09 22.3215L252.617 19.1244C252.734 18.6012 253.32 18.0781 253.848 18.0781H257.773L258.477 14.1253C258.594 13.6022 259.062 13.2534 259.648 13.1371L265.801 12.0908C265.859 12.0908 265.918 12.0908 265.977 12.0908C266.445 12.0908 266.738 12.3233 266.738 12.7884C266.738 12.8465 266.738 12.9046 266.738 12.9627L265.801 18.0781H269.785C270.254 18.0781 270.606 18.4269 270.606 18.8919C270.547 18.8919 270.547 18.95 270.547 19.0082Z" fill="white"/>
<path d="M294.864 30.227L294.219 33.5985C292.637 41.8528 288.418 46.2125 279.746 46.2125C273.125 46.2125 269.492 42.0272 269.492 36.3306C269.492 35.4587 269.551 34.5286 269.727 33.5985L270.371 30.227C272.012 21.4496 276.699 17.6131 284.844 17.6131C291.465 17.6131 295.157 21.5077 295.157 27.3787C295.157 28.3669 294.981 29.6458 294.864 30.227ZM283.731 24.2979C280.918 24.2979 279.102 25.9255 278.281 30.227L277.637 33.5985C277.461 34.4705 277.403 35.2261 277.403 35.9237C277.403 38.4232 278.574 39.5858 281.035 39.5858C284.2 39.5858 285.664 37.5513 286.426 33.5985L287.071 30.227C287.246 29.4132 287.305 28.5994 287.305 28.0181C287.246 25.4605 286.075 24.2979 283.731 24.2979Z" fill="white"/>
</svg>
